# xmcd
#
# Track frame offsets:
#	150
#	9943
#	28277
#	48191
#	63913
#	80431
#	98274
#	125052
#	146932
#	159275
#	175480
#	194887
#	214082
#	225853
#	242626
#
# Disc length: 3427 seconds
#
# Revision: 1
# Processed by: cddbd v1.5.2PL0 Copyright (c) Steve Scherf et al.
# Submitted via: audiograbber 1.83.01
#
DISCID=c50d610f
DTITLE=James Last - The Essential James Last - CD 1
DYEAR=2006
DGENRE=Easy Listening
TTITLE0=Fanfare
TTITLE1=Orange Blossom Spezial
TTITLE2=Beatles Medley: (a) Can't Buy Me Love - (b) A Hard Day's Night - (c) Ob
TTITLE2=La Di Ob La Da
TTITLE3=Dancing Queen
TTITLE4=Mamma Mia
TTITLE5=Gimme, Gimme, Gimme
TTITLE6=Don't Cry For Me Argentina
TTITLE7=Granada - Lady Of Spain
TTITLE8=Carmina Burana
TTITLE9=Fernando
TTITLE10=My Heart Will Go On (Titanic Theme)
TTITLE11=Jigs And Reels
TTITLE12=Biscaya
TTITLE13=Alle Vogel
TTITLE14=Der Mai Ist Gekommen
EXTD=
EXTT0=
EXTT1=
EXTT2=
EXTT3=
EXTT4=
EXTT5=
EXTT6=
EXTT7=
EXTT8=
EXTT9=
EXTT10=
EXTT11=
EXTT12=
EXTT13=
EXTT14=
PLAYORDER=
